<svg width="89" height="25" viewBox="0 0 89 25" fill="none" xmlns="http://www.w3.org/2000/svg">
<path d="M22.4585 12.235C22.4585 6.03132 19.0718 1.25195 10.4626 1.25195H1.25208V23.218H10.4626C19.0718 23.218 22.4585 18.4387 22.4585 12.235ZM16.1915 12.235C16.1915 16.5712 13.7544 18.1855 10.3677 18.1855H7.23419V6.28453H10.3677C13.7544 6.28453 16.1915 7.89875 16.1915 12.235Z" fill="white"/>
<path d="M23.8911 23.218H41.2994V18.2171H29.8732V14.4506H39.9067V9.70286H29.8732V6.25287H41.0145V1.25195H23.8911V23.218Z" fill="white"/>
<path d="M61.564 8.87996C61.564 3.34095 58.0191 1.25195 52.5117 1.25195H42.9846V23.218H48.9667V16.508H52.5117C58.0191 16.508 61.564 14.4189 61.564 8.87996ZM55.3604 8.87996C55.3604 11.0323 54.3476 11.9185 51.9103 11.9185H48.9667V5.84141H51.9103C54.3476 5.84141 55.3604 6.72764 55.3604 8.87996Z" fill="white"/>
<path d="M62.2169 6.37948H69.1485V23.218H75.1306V6.37948H82.0623V1.25195H62.2169V6.37948Z" fill="white"/>
<path d="M79.5767 20.1426C79.5767 22.1304 81.1858 23.7395 83.1739 23.7395C85.1615 23.7395 86.7867 22.1304 86.7867 20.1426C86.7867 18.1547 85.1615 16.5298 83.1739 16.5298C81.1858 16.5298 79.5767 18.1547 79.5767 20.1426ZM80.2708 20.1426C80.2708 18.5019 81.5644 17.1608 83.1739 17.1608C84.7826 17.1608 86.0923 18.5019 86.0923 20.1426C86.0923 21.7832 84.7826 23.1084 83.1739 23.1084C81.5644 23.1084 80.2708 21.7832 80.2708 20.1426ZM81.4856 21.9253H82.6211V20.6947H83.2686L83.9465 21.9253H85.1772L84.3567 20.4739C84.7356 20.3161 85.019 19.8902 85.019 19.4169C85.019 18.5807 84.4828 18.1863 83.5676 18.1863H81.4856V21.9253ZM83.8674 19.4326C83.8674 19.7323 83.6788 19.8586 83.3155 19.8586H82.6211V19.0697H83.3155C83.6788 19.0697 83.8674 19.1645 83.8674 19.4326Z" fill="white"/>
</svg>
